HIERARCHY
ROOT Hips
{
	OFFSET 0.00 0.00 0.00
	CHANNELS 6 Xposition Yposition Zposition Xrotation Yrotation Zrotation
	JOINT LeftUpLeg
	{
		OFFSET 3.25772 0.00000 0.00000
		CHANNELS 3 Xrotation Yrotation Zrotation
		JOINT LeftLeg
		{
			OFFSET 0.00000 -15.35355 0.00000
			CHANNELS 3 Xrotation Yrotation Zrotation
			JOINT LeftFoot
			{
				OFFSET 0.00000 -16.48949 0.00000
				CHANNELS 3 Xrotation Yrotation Zrotation
				JOINT LeftToeBase
				{
					OFFSET 0.00000 -1.72224 6.42750
					CHANNELS 3 Xrotation Yrotation Zrotation
					End Site
					{
						OFFSET 0.00000 0.00000 2.95275
					}
				}
			}
		}
	}
	JOINT RightUpLeg
	{
		OFFSET -3.25772 0.00000 0.00000
		CHANNELS 3 Xrotation Yrotation Zrotation
		JOINT RightLeg
		{
			OFFSET 0.00000 -15.35355 0.00000
			CHANNELS 3 Xrotation Yrotation Zrotation
			JOINT RightFoot
			{
				OFFSET 0.00000 -16.48949 0.00000
				CHANNELS 3 Xrotation Yrotation Zrotation
				JOINT RightToeBase
				{
					OFFSET 0.00000 -1.72224 6.42750
					CHANNELS 3 Xrotation Yrotation Zrotation
					End Site
					{
						OFFSET 0.00000 0.00000 2.95275
					}
				}
			}
		}
	}
	JOINT Spine
	{
		OFFSET 0.00000 0.03937 0.00000
		CHANNELS 3 Xrotation Yrotation Zrotation
		JOINT Spine1
		{
			OFFSET 0.00000 10.14986 0.00000
			CHANNELS 3 Xrotation Yrotation Zrotation
			JOINT Neck
			{
				OFFSET 0.00000 9.84250 0.00000
				CHANNELS 3 Xrotation Yrotation Zrotation
				JOINT Head
				{
					OFFSET 0.00000 4.54023 0.00000
					CHANNELS 3 Xrotation Yrotation Zrotation
					End Site
					{
						OFFSET 0.00000 4.52755 0.00000
					}
				}
			}
			JOINT LeftShoulder
			{
				OFFSET 0.00000 9.84250 0.00000
				CHANNELS 3 Xrotation Yrotation Zrotation
				JOINT LeftArm
				{
					OFFSET 7.21510 -0.00003 0.00000
					CHANNELS 3 Xrotation Yrotation Zrotation
					JOINT LeftForeArm
					{
						OFFSET 10.66411 -0.00004 0.00000
						CHANNELS 3 Xrotation Yrotation Zrotation
						JOINT LeftHand
						{
							OFFSET 8.93656 -0.00003 0.00000
							CHANNELS 3 Xrotation Yrotation Zrotation
							JOINT L_Wrist_End
							{
								OFFSET 3.93700 -0.00001 0.00000
								CHANNELS 3 Xrotation Yrotation Zrotation
							}
						}
					}
				}
			}
			JOINT RightShoulder
			{
				OFFSET 0.00000 9.84250 0.00000
				CHANNELS 3 Xrotation Yrotation Zrotation
				JOINT RightArm
				{
					OFFSET -7.21510 -0.00003 0.00000
					CHANNELS 3 Xrotation Yrotation Zrotation
					JOINT RightForeArm
					{
						OFFSET -10.66411 -0.00004 0.00000
						CHANNELS 3 Xrotation Yrotation Zrotation
						JOINT RightHand
						{
							OFFSET -8.93656 -0.00003 0.00000
							CHANNELS 3 Xrotation Yrotation Zrotation
							JOINT R_Wrist_End
							{
								OFFSET -5.41338 -0.00002 0.00000
								CHANNELS 3 Xrotation Yrotation Zrotation
							}
						}
					}
				}
			}
		}
	}
}
MOTION
Frames: 10
Frame Time: 0.008333
 -2.4540 32.8310 51.6002 1.1750 -6.0459 -0.4220 -17.5136 16.1948 7.7801 -0.6440 -0.0000 -0.0000 -3.9925 -0.7832 -6.2199 -39.5104 0.0000 0.0000 12.7804 4.3516 0.2425 11.9444 -0.0000 0.0000 -10.7879 -7.3885 -3.6842 -36.3477 0.0000 -0.0000 -14.9919 3.6741 -1.4782 24.9974 5.8569 -2.3000 -15.5162 0.5003 10.7253 -9.6841 -22.3061 -24.4067 17.7730 10.2259 5.2491 -5.3474 -31.7991 -70.4655 -0.0001 -26.9571 -0.0000 -1.0043 2.6452 15.4626 -0.0000 0.0000 -0.0000 8.0418 1.7958 -6.0199 -14.1090 55.8046 61.2360 -0.0003 56.9698 0.0002 -11.8124 -13.9528 -17.7520 -0.0000 -0.0000 0.0000
 -2.4312 32.7832 51.8996 1.1713 -5.9976 -0.4631 -18.0123 15.8316 7.9629 0.8903 -0.0000 -0.0000 -4.2812 -1.1693 -5.4621 -39.4654 0.0000 0.0000 12.9847 4.3764 0.1997 12.5695 -0.0000 0.0000 -10.8881 -7.4148 -3.5964 -36.8195 0.0000 0.0000 -14.9501 3.8664 -1.5351 24.9527 5.9621 -2.5020 -15.6031 0.1698 10.6318 -9.6674 -22.3912 -24.3478 17.9328 10.2733 5.0402 -5.5495 -31.4821 -70.5062 -0.0001 -26.7122 -0.0000 -1.0749 2.4021 15.8813 -0.0000 0.0000 -0.0000 8.0901 1.7612 -6.0900 -13.9977 55.9807 61.0491 -0.0003 57.3635 0.0002 -11.1350 -14.2344 -17.6624 -0.0000 -0.0000 0.0000
 -2.3904 32.7435 52.1919 1.1351 -5.8298 -0.4897 -18.3729 15.1635 8.1055 2.5202 0.0000 0.0000 -4.2934 -1.3708 -5.2512 -39.7278 0.0000 -0.0000 13.1575 3.9357 0.1270 13.3156 -0.0000 0.0000 -10.8922 -7.2675 -3.2862 -37.6434 0.0000 -0.0000 -14.8832 3.9990 -1.4790 25.0031 5.8862 -2.8136 -15.8483 -0.2881 10.1576 -9.0786 -22.2040 -23.6063 17.7855 10.2368 4.9559 -5.4216 -31.4404 -70.4262 -0.0001 -26.3681 -0.0000 -0.9403 2.0575 15.7302 -0.0000 0.0000 -0.0000 8.2151 1.6905 -6.1298 -13.9419 56.3925 60.6516 -0.0003 57.6447 0.0002 -11.2553 -14.4011 -17.3806 -0.0000 0.0000 -0.0000
 -2.3537 32.7087 52.5011 1.1070 -5.8876 -0.5367 -18.8166 14.9895 8.2697 4.3522 -0.0000 0.0000 -4.7159 -1.3891 -4.5885 -38.8989 0.0000 0.0000 13.3665 4.0679 0.0289 13.9627 -0.0000 0.0000 -10.8194 -7.2476 -3.2753 -38.2683 0.0000 0.0000 -14.8928 4.1962 -1.4983 25.0569 5.9902 -3.0137 -16.0420 -0.6070 10.2380 -8.9756 -22.2490 -23.8384 18.2239 10.2735 4.6346 -6.0087 -30.9237 -70.5013 -0.0001 -26.2867 -0.0000 -0.3716 2.5864 15.8468 -0.0000 -0.0000 0.0000 8.1913 1.8051 -6.2267 -13.4740 56.6118 60.2677 -0.0003 58.0259 0.0002 -11.1452 -14.5906 -17.9337 -0.0000 0.0000 -0.0000
 -2.2805 32.6759 52.8698 0.9403 -5.5889 -0.4200 -18.8649 15.0827 7.9400 5.8359 -0.0000 0.0000 -4.8671 -1.4444 -4.1788 -38.6437 0.0000 -0.0000 13.9562 3.3944 -0.2869 14.4270 -0.0000 0.0000 -10.6205 -6.7869 -3.1002 -38.9849 0.0000 -0.0000 -15.1753 4.3956 -1.3002 25.7068 5.6591 -3.7227 -15.9268 -0.9477 9.9985 -9.1689 -22.3289 -23.2286 17.7220 10.4410 4.8922 -5.8421 -31.2859 -70.5572 -0.0001 -25.8504 -0.0000 -1.2883 2.1811 15.7809 -0.0000 -0.0000 0.0000 8.2860 1.6669 -6.2318 -13.8572 56.8489 60.4492 -0.0003 58.1461 0.0002 -10.4589 -14.8075 -17.6602 -0.0000 0.0000 -0.0000
 -2.2317 32.6483 53.1793 0.8911 -5.8217 -0.3171 -18.9895 14.9345 7.8513 7.1126 -0.0000 0.0000 -4.8575 -1.0783 -3.1307 -38.6980 0.0000 -0.0000 14.0148 3.7541 -0.5805 15.3859 -0.0000 0.0000 -10.5739 -6.7844 -2.8254 -39.6879 0.0000 -0.0000 -15.0132 4.7324 -1.3128 25.4984 5.7130 -4.1921 -16.1800 -1.3205 10.3361 -8.7258 -22.3198 -23.5189 17.8921 10.4380 4.7514 -6.0794 -30.6965 -70.6279 -0.0001 -25.6877 -0.0000 -0.8837 2.2998 15.9924 -0.0000 -0.0000 0.0000 8.5002 1.7914 -6.0387 -13.2068 57.0008 59.7012 -0.0003 58.3359 0.0002 -10.2408 -14.9859 -17.4748 -0.0000 0.0000 -0.0000
 -2.1652 32.6283 53.5267 0.7953 -5.6653 -0.2745 -19.0030 14.9708 7.7067 8.1768 -0.0000 0.0000 -4.7138 -1.4270 -2.7455 -38.3941 0.0000 0.0000 14.3626 3.1782 -0.8287 16.0194 -0.0000 0.0000 -10.2058 -6.2908 -2.6181 -40.5882 0.0000 0.0000 -15.3068 4.8068 -1.2819 26.0240 5.4819 -4.6054 -16.0152 -1.3614 10.1802 -8.9701 -22.3809 -22.9740 18.0456 10.6070 4.6407 -6.5345 -30.4976 -70.7452 -0.0001 -25.4561 -0.0000 -0.4687 2.3876 15.9236 -0.0000 -0.0000 0.0000 8.6110 2.0027 -6.1869 -13.2443 57.1018 59.6579 -0.0003 58.4066 0.0002 -9.7119 -14.3228 -17.0339 -0.0000 -0.0000 0.0000
 -2.0685 32.6184 53.9154 0.6085 -5.5950 0.1612 -18.3949 14.5288 7.0405 8.8171 -0.0000 0.0000 -4.1485 -1.2454 -2.5751 -38.3167 0.0000 -0.0000 14.8658 2.8731 -1.5346 16.6631 -0.0000 0.0000 -9.7702 -6.0114 -1.9774 -41.7455 0.0000 0.0000 -15.4358 5.1483 -1.2754 26.4133 5.2621 -5.4511 -15.8737 -1.3689 10.4411 -9.2959 -22.4721 -22.9874 17.5992 10.6423 4.8841 -6.3574 -30.6548 -70.8589 -0.0001 -24.9732 -0.0000 -1.0792 2.1925 16.3645 -0.0000 0.0000 -0.0000 8.7055 1.7829 -5.9466 -13.0713 57.3501 59.4507 -0.0003 58.4056 0.0002 -9.9400 -13.8676 -16.6966 -0.0000 0.0000 -0.0000
 -1.9818 32.6006 54.2443 0.5893 -5.6958 0.3044 -18.2939 14.7921 6.8164 9.5992 -0.0000 0.0000 -3.8173 -1.7084 -2.4192 -37.8150 0.0000 -0.0000 14.8944 2.7716 -1.9273 17.6456 -0.0000 0.0000 -9.4112 -5.7261 -1.3692 -42.7580 0.0000 -0.0000 -15.3668 5.4333 -1.2183 26.2838 5.2452 -5.9138 -15.6032 -1.5272 10.2764 -9.4457 -22.5855 -22.7144 18.1945 10.5611 4.5600 -6.9532 -30.3077 -70.7007 -0.0001 -24.6482 -0.0000 -1.2896 1.8773 16.3654 -0.0000 -0.0000 0.0000 8.8733 1.8838 -5.8058 -12.1973 57.3529 58.7596 -0.0003 58.7206 0.0002 -9.9172 -13.7735 -16.7315 -0.0000 -0.0000 0.0000
 -1.8980 32.6031 54.5871 0.6434 -5.7407 0.5241 -18.3111 14.8095 6.5706 10.6534 -0.0000 0.0000 -3.7736 -2.0489 -2.3515 -37.4896 0.0000 -0.0000 14.9023 2.6338 -2.3857 18.5257 -0.0000 0.0000 -8.7511 -5.2963 -1.2975 -44.0533 0.0000 0.0000 -15.6963 5.6578 -1.2261 26.7120 5.1678 -6.3640 -15.2799 -1.6382 9.9779 -9.8837 -22.7585 -22.1600 17.9566 10.5966 4.4874 -7.1197 -30.2877 -70.8157 -0.0001 -24.3602 -0.0000 -0.5763 2.3101 16.4738 -0.0000 0.0000 -0.0000 8.8600 1.8408 -5.7633 -11.7944 57.4606 58.5214 -0.0003 58.8847 0.0002 -9.8460 -13.8685 -16.8279 -0.0000 0.0000 -0.0000
